<svg width="174" height="36" viewBox="0 0 174 36" fill="none" xmlns="http://www.w3.org/2000/svg">
<path d="M39.5718 15.4894C38.0677 15.4894 36.8408 16.8399 36.8408 18.5034C36.8408 20.1626 38.0637 21.5175 39.5718 21.5175C41.0755 21.5175 42.3025 20.1669 42.3025 18.5034C42.3025 16.8442 41.0755 15.4894 39.5718 15.4894Z" fill="#253C4F"/>
<path d="M39.5717 23.2667C37.1508 23.2667 35.1781 21.1316 35.1781 18.5034C35.1781 15.8752 37.1508 13.7401 39.5717 13.7401C41.9928 13.7401 43.9655 15.8752 43.9655 18.5034C43.9655 21.1316 41.9928 23.2667 39.5717 23.2667ZM49.6104 18.0404C47.0101 13.6501 43.505 11.232 39.7511 11.232C35.9973 11.232 32.4921 13.6501 29.8918 18.0404C29.7249 18.3233 29.7249 18.6835 29.8918 18.9665C32.4921 23.3568 35.9973 25.7748 39.7511 25.7748C43.505 25.7748 47.0061 23.3568 49.6104 18.9665C49.7776 18.6835 49.7776 18.3233 49.6104 18.0404Z" fill="#AC1754"/>
<path d="M7.0918 28.4856L0.960938 8.49522H2.93528L8.67647 27.3147H7.6893L13.6123 8.49522H15.3789L21.224 27.3147H20.2887L26.0819 8.49522H27.9263L21.7955 28.4856H19.7692L14.1839 10.637H14.7034L9.09212 28.4856H7.0918ZM52.2287 28.4856V8.49522H59.035C60.5764 8.49522 61.9013 8.77128 63.0097 9.32339C64.1181 9.85647 64.9667 10.637 65.5555 11.6651C66.1617 12.6742 66.4648 13.9021 66.4648 15.3491C66.4648 16.7579 66.1617 17.9764 65.5555 19.0044C64.9667 20.0135 64.1181 20.7941 63.0097 21.3462C61.9013 21.8793 60.5764 22.1458 59.035 22.1458H53.2938L54.1511 21.1748V28.4856H52.2287ZM64.6463 28.4856L59.9702 21.2319H62.0485L66.7505 28.4856H64.6463ZM54.1511 21.3462L53.2938 20.3467H58.983C60.8015 20.3467 62.1784 19.9088 63.1136 19.033C64.0661 18.1572 64.5421 16.9293 64.5421 15.3491C64.5421 13.7498 64.0661 12.5123 63.1136 11.6366C62.1784 10.7608 60.8015 10.3229 58.983 10.3229H53.2938L54.1511 9.32339V21.3462ZM72.6646 23.5166L72.5867 20.9464L83.6015 8.49522H85.8096L77.7823 17.7479L76.6913 19.033L72.6646 23.5166ZM71.002 28.4856V8.49522H72.9244V28.4856H71.002ZM84.0691 28.4856L76.2236 18.5475L77.5226 17.0054L86.3552 28.4856H84.0691ZM93.3417 28.5713C92.4931 28.5713 91.6531 28.4475 90.8218 28.2C90.0078 27.9525 89.2804 27.6194 88.6396 27.2005C87.9988 26.7817 87.5139 26.3057 87.1848 25.7726L87.6005 25.4014C87.9296 25.8964 88.3972 26.3438 89.0033 26.7436C89.6095 27.1434 90.2936 27.4575 91.0556 27.686C91.8176 27.9144 92.5883 28.0287 93.3674 28.0287C94.5973 28.0287 95.6884 27.8383 96.6409 27.4575C97.5934 27.0577 98.3382 26.477 98.875 25.7155C99.4119 24.954 99.6804 24.0306 99.6804 22.9454C99.6804 22.1648 99.4985 21.5366 99.1348 21.0606C98.7884 20.5656 98.3208 20.1658 97.732 19.8612C97.1605 19.5566 96.5283 19.2995 95.8356 19.0901C95.1428 18.8807 94.4501 18.6618 93.7573 18.4333C93.0646 18.1858 92.4238 17.9002 91.8349 17.5766C91.2634 17.2339 90.7958 16.7865 90.4321 16.2344C90.0857 15.6822 89.9126 14.9778 89.9126 14.1211C89.9126 12.8836 90.207 11.846 90.7958 11.0083C91.3847 10.1516 92.1813 9.50426 93.1855 9.06637C94.1903 8.62849 95.3247 8.40955 96.589 8.40955C97.5761 8.40955 98.5373 8.56185 99.4725 8.86647C100.408 9.17108 101.196 9.60897 101.837 10.1801L101.499 10.6656C100.858 10.1135 100.113 9.69464 99.2647 9.40907C98.4334 9.10445 97.5415 8.95214 96.589 8.95214C95.394 8.95214 94.3288 9.15205 93.3936 9.55185C92.4584 9.95166 91.7224 10.5323 91.1855 11.2939C90.6659 12.0554 90.4061 12.9788 90.4061 14.064C90.4061 14.8445 90.5793 15.4823 90.9257 15.9773C91.2894 16.4723 91.757 16.8817 92.3285 17.2053C92.9174 17.5099 93.5582 17.7765 94.2509 18.0049C94.961 18.2144 95.6624 18.4333 96.3551 18.6618C97.0479 18.8902 97.68 19.1758 98.2516 19.5185C98.8404 19.8612 99.308 20.2991 99.6544 20.8321C100.018 21.3652 100.2 22.0601 100.2 22.9169C100.2 24.1734 99.8882 25.2205 99.2647 26.0582C98.6586 26.8959 97.8359 27.5242 96.7968 27.943C95.775 28.3619 94.6233 28.5713 93.3417 28.5713ZM106.502 18.062H116.659L116.555 18.6046H106.398L106.502 18.062ZM104.839 27.943H116.425L116.322 28.4856H104.216L107.853 8.49522H119.569L119.465 9.03782H108.268L104.839 27.943ZM121.568 28.4856L125.205 8.49522H125.647L135.675 27.8573L135.467 27.7717L138.974 8.49522H139.493L135.856 28.4856H135.415L125.387 9.12349L125.595 9.20916L122.088 28.4856H121.568ZM147.505 28.5713C146.657 28.5713 145.817 28.4475 144.985 28.2C144.171 27.9525 143.444 27.6194 142.803 27.2005C142.162 26.7817 141.677 26.3057 141.348 25.7726L141.764 25.4014C142.093 25.8964 142.561 26.3438 143.167 26.7436C143.773 27.1434 144.457 27.4575 145.219 27.686C145.981 27.9144 146.752 28.0287 147.531 28.0287C148.761 28.0287 149.852 27.8383 150.804 27.4575C151.757 27.0577 152.502 26.477 153.039 25.7155C153.575 24.954 153.844 24.0306 153.844 22.9454C153.844 22.1648 153.662 21.5366 153.298 21.0606C152.952 20.5656 152.484 20.1658 151.896 19.8612C151.324 19.5566 150.692 19.2995 149.999 19.0901C149.306 18.8807 148.614 18.6618 147.921 18.4333C147.228 18.1858 146.587 17.9002 145.998 17.5766C145.427 17.2339 144.959 16.7865 144.596 16.2344C144.249 15.6822 144.076 14.9778 144.076 14.1211C144.076 12.8836 144.37 11.846 144.959 11.0083C145.548 10.1516 146.345 9.50426 147.349 9.06637C148.354 8.62849 149.488 8.40955 150.752 8.40955C151.74 8.40955 152.701 8.56185 153.636 8.86647C154.571 9.17108 155.359 9.60897 156 10.1801L155.662 10.6656C155.022 10.1135 154.277 9.69464 153.428 9.40907C152.597 9.10445 151.705 8.95214 150.752 8.95214C149.557 8.95214 148.492 9.15205 147.557 9.55185C146.622 9.95166 145.886 10.5323 145.349 11.2939C144.829 12.0554 144.57 12.9788 144.57 14.064C144.57 14.8445 144.743 15.4823 145.089 15.9773C145.453 16.4723 145.921 16.8817 146.492 17.2053C147.081 17.5099 147.722 17.7765 148.414 18.0049C149.125 18.2144 149.826 18.4333 150.519 18.6618C151.211 18.8902 151.844 19.1758 152.415 19.5185C153.004 19.8612 153.472 20.2991 153.818 20.8321C154.182 21.3652 154.363 22.0601 154.363 22.9169C154.363 24.1734 154.052 25.2205 153.428 26.0582C152.822 26.8959 151.999 27.5242 150.96 27.943C149.938 28.3619 148.787 28.5713 147.505 28.5713ZM160.665 18.062H170.823L170.719 18.6046H160.561L160.665 18.062ZM159.003 27.943H170.589L170.485 28.4856H158.379L162.016 8.49522H173.732L173.628 9.03782H162.432L159.003 27.943Z" fill="#253C4F"/>
</svg>
